$MeshFormat
4.1 0 8
$EndMeshFormat
$Entities
8 8 1 0
1 -0.015 -0.025 0 0 
2 0.015 -0.025 0 0 
3 0.025 -0.015 0 0 
4 0.025 0.015 0 0 
5 0.015 0.025 0 0 
6 -0.015 0.025 0 0 
7 -0.025 0.015 0 0 
8 -0.025 -0.015 0 0 
1 -0.0150001 -0.0250001 -1e-07 0.0150001 -0.0249999 1e-07 0 2 1 -2 
2 0.0149999 -0.0250001 -1e-07 0.0250001 -0.0149999 1e-07 0 2 2 -3 
3 0.0249999 -0.0150001 -1e-07 0.0250001 0.0150001 1e-07 0 2 3 -4 
4 0.0149999 0.0149999 -1e-07 0.0250001 0.0250001 1e-07 0 2 4 -5 
5 -0.0150001 0.0249999 -1e-07 0.0150001 0.0250001 1e-07 0 2 5 -6 
6 -0.0250001 0.0149999 -1e-07 -0.0149999 0.0250001 1e-07 0 2 6 -7 
7 -0.0250001 -0.0150001 -1e-07 -0.0249999 0.0150001 1e-07 0 2 7 -8 
8 -0.0250001 -0.0250001 -1e-07 -0.0149999 -0.0149999 1e-07 0 2 8 -1 
1 -0.0250001 -0.0250001 -1e-07 0.0250001 0.0250001 1e-07 0 8 1 2 3 4 5 6 7 8 
$EndEntities
$Nodes
17 99 1 99
0 1 0 1
1
-0.015 -0.025 0
0 2 0 1
2
0.015 -0.025 0
0 3 0 1
3
0.025 -0.015 0
0 4 0 1
4
0.025 0.015 0
0 5 0 1
5
0.015 0.025 0
0 6 0 1
6
-0.015 0.025 0
0 7 0 1
7
-0.025 0.015 0
0 8 0 1
8
-0.025 -0.015 0
1 1 0 4
9
10
11
12
-0.009000000000000001 -0.025 0
-0.003000000000000001 -0.025 0
0.003000000000000001 -0.025 0
0.009000000000000006 -0.025 0
1 2 0 2
13
14
0.02000000000000001 -0.02366025403784438 0
0.02366025403784439 -0.01999999999999999 0
1 3 0 4
15
16
17
18
0.025 -0.009000000000000001 0
0.025 -0.003000000000000001 0
0.025 0.003000000000000001 0
0.025 0.009000000000000006 0
1 4 0 2
19
20
0.02366025403784439 0.02 0
0.02000000000000001 0.02366025403784439 0
1 5 0 4
21
22
23
24
0.009000000000000001 0.025 0
0.003000000000000001 0.025 0
-0.003000000000000001 0.025 0
-0.009000000000000006 0.025 0
1 6 0 2
25
26
-0.01999999999999999 0.02366025403784439 0
-0.02366025403784438 0.02000000000000001 0
1 7 0 4
27
28
29
30
-0.025 0.009000000000000001 0
-0.025 0.003000000000000001 0
-0.025 -0.003000000000000001 0
-0.025 -0.009000000000000006 0
1 8 0 2
31
32
-0.02366025403784439 -0.02 0
-0.02 -0.02366025403784439 0
2 1 0 67
33
34
35
36
37
38
39
40
41
42
43
44
45
46
47
48
49
50
51
52
53
54
55
56
57
58
59
60
61
62
63
64
65
66
67
68
69
70
71
72
73
74
75
76
77
78
79
80
81
82
83
84
85
86
87
88
89
90
91
92
93
94
95
96
97
98
99
-9.175497160110865e-05 0.01997673570998447 0
3.886344760038108e-05 -0.02040166209355415 0
0.02040154073529819 6.040150529509351e-05 0
-0.01980384757729337 -5.2091739737318e-19 0
0.0200541525453681 0.01171228465349041 0
-0.01185978781360593 0.019833714135377 0
-0.01979943173849256 -0.0120364854112303 0
0.01185978781360593 -0.019833714135377 0
0.01971665461954846 -0.01193609937109132 0
-0.01193609937109132 -0.01971665461954845 0
0.01187122879223229 0.01938230542247788 0
-0.01971665461954845 0.01193609937109132 0
-0.01866025403784438 0.0186602540378444 0
0.0186602540378444 -0.01866025403784439 0
-0.01866025403784439 -0.01866025403784438 0
0.01866025403784439 0.01866025403784439 0
-0.01449733972801386 -0.01422346051921585 0
-0.008498755146970842 -0.0149595268245798 0
-0.01054830079390603 -0.009627219820968654 0
-0.004818437307474483 -0.01035873502659445 0
-0.006843970648634378 -0.00492763782678499 0
-0.0009854776756384482 -0.005778954097644517 0
-0.003091992655180121 -0.000255991823710139 0
0.002771850796029415 -0.001100639877043618 0
0.004858357875074533 -0.006336685362459736 0
0.0005852818759643409 0.00448409848261936 0
-0.005024235566587746 0.005214250590982166 0
0.006506692339040725 0.003594985816703698 0
0.0043565664881646 0.009150529902105606 0
0.01033819099224874 0.008489045343951259 0
-0.013630869029368 -0.003893918119285656 0
0.01214901379430015 0.002974796260613961 0
0.008240284179234275 0.01422677388004694 0
-0.01422346051921585 0.01449733972801387 0
-0.01517725542272072 0.008459002460689643 0
-0.008867775844349265 0.01523905871155903 0
0.01422346051921586 -0.01449733972801387 0
0.01513563636053297 -0.008608971668158896 0
0.009067021769427485 -0.01546853285529265 0
0.01435770552719607 0.01375746507588235 0
0.01577414031243265 0.007670472612053086 0
0.00573081268847401 0.0196941916343117 0
-0.01984251281189098 -0.006083572047621363 0
-0.01429141058256856 0.002564989507226867 0
-0.001353270781443634 0.009924437887179541 0
0.008478566811666626 -0.001765807584540018 0
0.001099371857992584 -0.01083643658252246 0
0.01476014013924811 -0.002464400598121964 0
0.002365118130978606 0.01457933479336091 0
-0.02023895773750976 0.006000000000000001 0
-0.006000000000000002 -0.02023895773750976 0
0.02000232864243795 -0.005824845022012848 0
-0.008836737662134324 0.0006888810031345744 0
0.00604311790349397 -0.02034694796537032 0
-0.005958037922318186 0.02006330883200989 0
-0.003456674908841935 0.01503174927887662 0
-0.002463739965022803 -0.01550172158871313 0
-0.006760046445592045 0.01042613629799428 0
0.0101609784067584 -0.007000467038444431 0
-0.01031493092651791 0.006330480705633485 0
-0.01566369082033429 -0.009172931183664364 0
0.02063820252977605 0.00582528608443085 0
0.003515540430647206 -0.01555721650038509 0
0.006887581650413817 -0.01097058329658514 0
-0.01106869383167916 0.01099040358077806 0
0.01675203070503377 0.002988685604588144 0
0.01109493574126971 -0.011309178917299 0
$EndNodes
$Elements
17 204 1 204
0 1 15 1
1 1 
0 2 15 1
2 2 
0 3 15 1
3 3 
0 4 15 1
4 4 
0 5 15 1
5 5 
0 6 15 1
6 6 
0 7 15 1
7 7 
0 8 15 1
8 8 
1 1 1 5
9 1 9 
10 9 10 
11 10 11 
12 11 12 
13 12 2 
1 2 1 3
14 2 13 
15 13 14 
16 14 3 
1 3 1 5
17 3 15 
18 15 16 
19 16 17 
20 17 18 
21 18 4 
1 4 1 3
22 4 19 
23 19 20 
24 20 5 
1 5 1 5
25 5 21 
26 21 22 
27 22 23 
28 23 24 
29 24 6 
1 6 1 3
30 6 25 
31 25 26 
32 26 7 
1 7 1 5
33 7 27 
34 27 28 
35 28 29 
36 29 30 
37 30 8 
1 8 1 3
38 8 31 
39 31 32 
40 32 1 
2 1 2 164
41 36 75 63 
42 42 47 1 
43 41 46 3 
44 44 45 7 
45 43 48 5 
46 2 46 40 
47 6 45 38 
48 4 48 37 
49 8 47 39 
50 1 47 32 
51 25 45 6 
52 3 46 14 
53 13 46 2 
54 19 48 4 
55 5 48 20 
56 7 45 26 
57 31 47 8 
58 63 76 36 
59 62 73 72 
60 65 72 43 
61 62 72 65 
62 76 82 36 
63 43 72 48 
64 43 74 65 
65 41 69 46 
66 42 49 47 
67 44 66 45 
68 67 82 76 
69 48 72 37 
70 46 69 40 
71 47 49 39 
72 45 66 38 
73 72 73 37 
74 75 93 63 
75 80 84 35 
76 42 50 49 
77 41 70 69 
78 44 67 66 
79 22 74 21 
80 95 96 79 
81 70 84 80 
82 33 74 22 
83 15 41 3 
84 8 39 30 
85 21 43 5 
86 6 38 24 
87 9 42 1 
88 4 37 18 
89 27 44 7 
90 2 40 12 
91 50 51 49 
92 89 95 79 
93 66 68 38 
94 69 71 40 
95 29 75 36 
96 50 52 51 
97 52 53 51 
98 52 54 53 
99 53 63 51 
100 54 55 53 
101 54 56 55 
102 56 58 55 
103 54 57 56 
104 58 59 55 
105 56 60 58 
106 60 61 58 
107 60 62 61 
108 60 64 62 
109 62 65 61 
110 64 73 62 
111 11 34 10 
112 17 35 16 
113 23 33 22 
114 29 36 28 
115 57 78 56 
116 58 77 59 
117 61 77 58 
118 56 78 60 
119 60 78 64 
120 52 79 54 
121 54 79 57 
122 21 74 43 
123 63 85 76 
124 30 75 29 
125 33 81 74 
126 74 81 65 
127 42 83 50 
128 44 82 67 
129 41 84 70 
130 61 81 77 
131 34 83 10 
132 36 82 28 
133 35 84 16 
134 59 85 55 
135 53 85 63 
136 78 80 64 
137 11 86 34 
138 23 87 33 
139 39 75 30 
140 71 86 40 
141 68 87 38 
142 32 47 31 
143 26 45 25 
144 14 46 13 
145 20 48 19 
146 65 81 61 
147 59 92 85 
148 52 89 79 
149 71 96 95 
150 34 95 89 
151 87 88 33 
152 9 83 42 
153 15 84 41 
154 27 82 44 
155 73 94 37 
156 63 93 51 
157 17 94 35 
158 10 83 9 
159 28 82 27 
160 16 84 15 
161 40 86 12 
162 38 87 24 
163 78 91 80 
164 80 91 70 
165 79 96 57 
166 88 90 77 
167 55 85 53 
168 35 98 80 
169 68 90 88 
170 76 92 67 
171 12 86 11 
172 24 87 23 
173 85 92 76 
174 37 94 18 
175 34 89 83 
176 80 98 64 
177 81 88 77 
178 68 88 87 
179 50 89 52 
180 77 90 59 
181 49 93 39 
182 57 91 78 
183 51 93 49 
184 33 88 81 
185 83 89 50 
186 39 93 75 
187 66 97 68 
188 18 94 17 
189 69 99 71 
190 86 95 34 
191 94 98 35 
192 90 92 59 
193 67 97 66 
194 70 99 69 
195 64 98 73 
196 71 95 86 
197 68 97 90 
198 90 97 92 
199 71 99 96 
200 57 96 91 
201 92 97 67 
202 73 98 94 
203 91 99 70 
204 96 99 91 
$EndElements
