$MeshFormat
4.1 0 8
$EndMeshFormat
$Entities
8 8 1 0
1 0.01 0 0 0 
2 0.04 0 0 0 
3 0.05 0.01 0 0 
4 0.05 0.015 0 0 
5 0.04 0.025 0 0 
6 0.01 0.025 0 0 
7 0 0.015 0 0 
8 0 0.01 0 0 
1 0.009999900000000001 -1e-07 -1e-07 0.0400001 1e-07 1e-07 0 2 1 -2 
2 0.0399999 -1.000000000002735e-07 -1e-07 0.05000010000000001 0.0100001 1e-07 0 2 2 -3 
3 0.0499999 0.009999900000000001 -1e-07 0.05000010000000001 0.0150001 1e-07 0 2 3 -4 
4 0.0399999 0.0149999 -1e-07 0.05000010000000001 0.0250001 1e-07 0 2 4 -5 
5 0.009999900000000003 0.0249999 -1e-07 0.0400001 0.0250001 1e-07 0 2 5 -6 
6 -1.000000000002735e-07 0.0149999 -1e-07 0.0100001 0.0250001 1e-07 0 2 6 -7 
7 -1e-07 0.009999900000000001 -1e-07 1e-07 0.0150001 1e-07 0 2 7 -8 
8 -1.000000000002735e-07 -1.000000000002735e-07 -1e-07 0.0100001 0.0100001 1e-07 0 2 8 -1 
1 -9.999999999940612e-08 -9.999999999940612e-08 -1e-07 0.05000010000000001 0.0250001 1e-07 0 8 1 2 3 4 5 6 7 8 
$EndEntities
$Nodes
17 74 1 74
0 1 0 1
1
0.01 0 0
0 2 0 1
2
0.04 0 0
0 3 0 1
3
0.05 0.01 0
0 4 0 1
4
0.05 0.015 0
0 5 0 1
5
0.04 0.025 0
0 6 0 1
6
0.01 0.025 0
0 7 0 1
7
0 0.015 0
0 8 0 1
8
0 0.01 0
1 1 0 5
9
10
11
12
13
0.015 0 0
0.02 0 0
0.02499999999999999 0 0
0.03000000000000001 0 0
0.035 0 0
1 2 0 2
14
15
0.045 0.001339745962155614 0
0.04866025403784438 0.004999999999999988 0
1 3 0 0
1 4 0 2
16
17
0.04866025403784438 0.02000000000000001 0
0.04499999999999998 0.0236602540378444 0
1 5 0 5
18
19
20
21
22
0.035 0.025 0
0.03000000000000001 0.025 0
0.02500000000000001 0.025 0
0.02 0.025 0
0.015 0.025 0
1 6 0 2
23
24
0.004999999999999995 0.02366025403784439 0
0.001339745962155602 0.01999999999999998 0
1 7 0 0
1 8 0 2
25
26
0.001339745962155612 0.005000000000000003 0
0.004999999999999996 0.001339745962155615 0
2 1 0 48
27
28
29
30
31
32
33
34
35
36
37
38
39
40
41
42
43
44
45
46
47
48
49
50
51
52
53
54
55
56
57
58
59
60
61
62
63
64
65
66
67
68
69
70
71
72
73
74
0.02749999999999999 0.00433012701892219 0
0.03720969589988091 0.02100051974987232 0
0.01765480126196382 0.004159022292528718 0
0.01258858201915474 0.02061873012847346 0
0.0225 0.02091520644726557 0
0.03722489415089818 0.004231125224324691 0
0.004926227249883421 0.008640486689027227 0
0.04626347107646198 0.01224962818281965 0
0.005048072768436215 0.01615336246753911 0
0.04400320631441114 0.006268965553373193 0
0.04366025403784439 0.0186602540378444 0
0.008640486689027223 0.004926227249883424 0
0.03245414902514969 0.004313626719822607 0
0.02999235817085827 0.008657503987994451 0
0.02506525831143768 0.008621383457175299 0
0.02757613469667729 0.01294503204598598 0
0.03251141547792258 0.01290049143272925 0
0.02259009745098046 0.01261101151465315 0
0.03014765559502259 0.01697104759870805 0
0.01744823172023115 0.02074065032236913 0
0.014939603673603 0.0163814306159642 0
0.01016278880689101 0.0162914681623414 0
0.01258359664170353 0.01230620238276057 0
0.01751348782931987 0.01229661939978761 0
0.03489532128206223 0.008655479063965535 0
0.03715373485562785 0.01291915847667324 0
0.02260320854519489 0.004256718895384343 0
0.03973774051891221 0.008737515492975785 0
0.007681922680709007 0.01244228205703806 0
0.03247622524915058 0.02099365806755782 0
0.02016487065161185 0.008374535951123637 0
0.02006510206198372 0.01667249215692731 0
0.02506316496744401 0.01687931690470188 0
0.01511625920989496 0.008277452496766641 0
0.0275311743019362 0.02095987150303889 0
0.03478290945687963 0.01693583372407715 0
0.01282295599559831 0.004259919314681048 0
0.007356531592772927 0.02028730246603305 0
0.0392657800217736 0.01740316327526878 0
0.003340645512836308 0.0125 0
0.04193364646034158 0.01360189620292458 0
0.01003020510450354 0.008762172640560053 0
0.04610352512249847 0.01590235568471773 0
0.04116025403784439 0.003556624327025934 0
0.04644337567297407 0.008839745962155613 0
0.04116025403784438 0.02144337567297407 0
0.004976614975266566 0.004976614975266568 0
0.04350198951194567 0.00996765908682023 0
$EndNodes
$Elements
17 154 1 154
0 1 15 1
1 1 
0 2 15 1
2 2 
0 3 15 1
3 3 
0 4 15 1
4 4 
0 5 15 1
5 5 
0 6 15 1
6 6 
0 7 15 1
7 7 
0 8 15 1
8 8 
1 1 1 6
9 1 9 
10 9 10 
11 10 11 
12 11 12 
13 12 13 
14 13 2 
1 2 1 3
15 2 14 
16 14 15 
17 15 3 
1 3 1 1
18 3 4 
1 4 1 3
19 4 16 
20 16 17 
21 17 5 
1 5 1 6
22 5 18 
23 18 19 
24 19 20 
25 20 21 
26 21 22 
27 22 6 
1 6 1 3
28 6 23 
29 23 24 
30 24 7 
1 7 1 1
31 7 8 
1 8 1 3
32 8 25 
33 25 26 
34 26 1 
2 1 2 120
35 35 64 24 
36 24 64 23 
37 58 59 31 
38 44 59 58 
39 60 68 63 
40 1 38 26 
41 25 33 8 
42 7 35 24 
43 67 69 37 
44 57 60 29 
45 19 61 56 
46 17 37 16 
47 15 36 14 
48 40 51 43 
49 21 31 20 
50 12 27 11 
51 32 39 13 
52 13 39 12 
53 30 47 46 
54 27 53 11 
55 30 48 47 
56 39 51 40 
57 30 46 22 
58 22 46 21 
59 21 46 31 
60 41 53 27 
61 32 51 39 
62 18 28 5 
63 12 39 27 
64 39 40 27 
65 40 43 42 
66 43 45 42 
67 48 49 47 
68 6 30 22 
69 40 41 27 
70 4 34 3 
71 10 29 9 
72 11 53 10 
73 42 44 41 
74 49 50 47 
75 10 53 29 
76 40 42 41 
77 2 32 13 
78 51 52 43 
79 35 55 48 
80 65 67 37 
81 50 57 44 
82 44 58 50 
83 56 61 45 
84 50 60 57 
85 63 68 38 
86 1 63 38 
87 32 54 51 
88 19 56 18 
89 46 58 31 
90 53 57 29 
91 42 59 44 
92 44 57 41 
93 50 58 47 
94 38 68 33 
95 31 61 20 
96 43 62 45 
97 32 70 54 
98 48 64 35 
99 9 63 1 
100 23 64 6 
101 6 64 30 
102 51 54 52 
103 54 70 36 
104 34 69 67 
105 48 55 49 
106 59 61 31 
107 18 56 28 
108 41 57 53 
109 45 59 42 
110 47 58 46 
111 45 62 56 
112 49 60 50 
113 20 61 19 
114 52 62 43 
115 29 63 9 
116 33 68 55 
117 30 64 48 
118 35 66 55 
119 54 67 52 
120 49 68 60 
121 45 61 59 
122 56 62 28 
123 33 66 8 
124 7 66 35 
125 37 72 65 
126 60 63 29 
127 33 73 38 
128 3 71 15 
129 16 69 4 
130 14 70 2 
131 5 72 17 
132 8 66 7 
133 17 72 37 
134 15 71 36 
135 36 70 14 
136 37 69 16 
137 55 66 33 
138 65 72 28 
139 26 73 25 
140 38 73 26 
141 25 73 33 
142 2 70 32 
143 4 69 34 
144 34 71 3 
145 28 72 5 
146 62 65 28 
147 54 74 67 
148 52 65 62 
149 55 68 49 
150 52 67 65 
151 36 74 54 
152 67 74 34 
153 71 74 36 
154 34 74 71 
$EndElements
