$MeshFormat
4.1 0 8
$EndMeshFormat
$Entities
4 4 1 0
1 -0.025 -0.025 0 0 
2 0.025 -0.025 0 0 
3 0.025 0.025 0 0 
4 -0.025 0.025 0 0 
1 -0.0250001 -0.0250001 -1e-07 0.0250001 -0.0249999 1e-07 0 2 1 -2 
2 0.0249999 -0.0250001 -1e-07 0.0250001 0.0250001 1e-07 0 2 2 -3 
3 -0.0250001 0.0249999 -1e-07 0.0250001 0.0250001 1e-07 0 2 3 -4 
4 -0.0250001 -0.0250001 -1e-07 -0.0249999 0.0250001 1e-07 0 2 4 -1 
1 -0.0250001 -0.0250001 -1e-07 0.0250001 0.0250001 1e-07 0 4 1 2 3 4 
$EndEntities
$Nodes
9 98 1 98
0 1 0 1
1
-0.025 -0.025 0
0 2 0 1
2
0.025 -0.025 0
0 3 0 1
3
0.025 0.025 0
0 4 0 1
4
-0.025 0.025 0
1 1 0 7
5
6
7
8
9
10
11
-0.01875 -0.025 0
-0.01249999999999999 -0.025 0
-0.006249999999999974 -0.025 0
5.551115123125783e-17 -0.025 0
0.006250000000000068 -0.025 0
0.01250000000000004 -0.025 0
0.01875000000000002 -0.025 0
1 2 0 7
12
13
14
15
16
17
18
0.025 -0.01875 0
0.025 -0.01249999999999999 0
0.025 -0.006249999999999974 0
0.025 5.551115123125783e-17 0
0.025 0.006250000000000068 0
0.025 0.01250000000000004 0
0.025 0.01875000000000002 0
1 3 0 7
19
20
21
22
23
24
25
0.01875 0.025 0
0.01249999999999999 0.025 0
0.006249999999999974 0.025 0
-5.551115123125783e-17 0.025 0
-0.006250000000000068 0.025 0
-0.01250000000000004 0.025 0
-0.01875000000000002 0.025 0
1 4 0 7
26
27
28
29
30
31
32
-0.025 0.01875 0
-0.025 0.01249999999999999 0
-0.025 0.006249999999999974 0
-0.025 -5.551115123125783e-17 0
-0.025 -0.006250000000000068 0
-0.025 -0.01250000000000004 0
-0.025 -0.01875000000000002 0
2 1 0 66
33
34
35
36
37
38
39
40
41
42
43
44
45
46
47
48
49
50
51
52
53
54
55
56
57
58
59
60
61
62
63
64
65
66
67
68
69
70
71
72
73
74
75
76
77
78
79
80
81
82
83
84
85
86
87
88
89
90
91
92
93
94
95
96
97
98
-0.003124999999999959 -0.01958734122634725 0
0.003124999999999959 0.01958734122634725 0
0.01937878094876921 -0.003574384942381914 0
-0.01946375304121099 0.003204743155311417 0
0.009359456700759921 -0.01977534069567815 0
0.01939814921902858 0.009917035341916153 0
-0.009505407321817592 0.01964924786951801 0
-0.01908686574491042 -0.008461298696150636 0
-0.01562499999999999 -0.01958734122634726 0
0.01896152316181562 -0.01565453211882303 0
0.01559851644199451 0.01970767471840105 0
-0.01952574039056459 0.01483289672011651 0
0.009370586073665728 0.01960739680835621 0
0.00624926434561092 0.01417802504969599 0
-1.226090648884815e-07 0.01417523955219475 0
0.003124856956090974 0.008762673628458704 0
-0.003216844156315329 0.008819529390711671 0
-1.533120003742681e-05 0.003359057515570147 0
0.006247420959342232 0.003351088665322012 0
0.003122014959884102 -0.00206139113991139 0
-0.00312805270669226 -0.002061361311841494 0
-5.724729264243819e-17 -0.007475952641916494 0
0.006249502493313975 -0.007475635520524442 0
-0.006250508784448766 -0.007475630549179444 0
-0.009375593581856877 -0.002062918093403857 0
0.003124999999999943 -0.01288861141556924 0
-0.01250000000000007 -0.007475952641916479 0
-0.009333762257798518 -0.01261841897949291 0
0.009330942001181973 -0.01261615378293541 0
0.01335306788476657 -0.007010689303782959 0
-0.01562069960085912 -0.002249628745915792 0
-0.01250000000000005 0.003349364905389008 0
-0.01610633903139385 0.008839297597390647 0
-0.009925799284917894 0.009105850900144078 0
-0.01312159029160623 0.01434383766549895 0
0.01347043859544627 0.01366066931374477 0
-0.006416043293300252 0.01425003386796208 0
-0.003160306336212265 0.01960374779276851 0
0.009374999999999968 -0.002063293868263763 0
0.01228667121085518 0.003306413203834371 0
-0.003125000000000077 -0.01288861141556924 0
-0.009374999999999974 -0.01958734122634724 0
0.003125000000000077 -0.01958734122634729 0
0.019482725740764 -0.00952257218630808 0
0.01859983806544209 0.003223246335753557 0
0.009374999999999967 0.00876202367904174 0
-0.006360270154969973 0.003418253884428259 0
0.01540731394093065 -0.02035371756632651 0
0.0198007247744157 0.01568148693352462 0
-0.01982921084713932 -0.01533189965802624 0
-0.01544333219357551 0.01985865432202901 0
0.01471529602376839 -0.01221433950452257 0
-0.01494555302794501 -0.01249633252335314 0
0.0145986716219666 -0.001223741714968142 0
-0.02077321493812449 -0.003125000000000062 0
0.01456036616548755 0.008040270314356491 0
-0.02113312227371027 0.009374999999999984 0
-0.02042468245269451 -0.02042468245269452 0
0.02042468245269451 0.02042468245269452 0
0.02042468245269452 -0.02042468245269451 0
-0.02042468245269452 0.02042468245269451 0
0.00625000000000006 -0.01623797632095832 0
-0.006250000000000087 -0.01623797632095818 0
-7.37257477290143e-18 -0.01623797632095825 0
-0.01199193260100171 -0.01623465164383665 0
0.01244822133031379 -0.01626775013076335 0
$EndNodes
$Elements
9 198 1 198
0 1 15 1
1 1 
0 2 15 1
2 2 
0 3 15 1
3 3 
0 4 15 1
4 4 
1 1 1 8
5 1 5 
6 5 6 
7 6 7 
8 7 8 
9 8 9 
10 9 10 
11 10 11 
12 11 2 
1 2 1 8
13 2 12 
14 12 13 
15 13 14 
16 14 15 
17 15 16 
18 16 17 
19 17 18 
20 18 3 
1 3 1 8
21 3 19 
22 19 20 
23 20 21 
24 21 22 
25 22 23 
26 23 24 
27 24 25 
28 25 4 
1 4 1 8
29 4 26 
30 26 27 
31 27 28 
32 28 29 
33 29 30 
34 30 31 
35 31 32 
36 32 1 
2 1 2 162
37 38 81 68 
38 62 76 35 
39 59 63 40 
40 68 88 38 
41 35 86 62 
42 63 87 40 
43 65 67 44 
44 67 69 39 
45 44 89 65 
46 64 65 36 
47 63 64 36 
48 66 79 49 
49 66 69 67 
50 68 81 43 
51 77 88 72 
52 72 86 77 
53 64 79 66 
54 49 69 66 
55 62 84 76 
56 40 85 59 
57 64 66 65 
58 41 85 82 
59 41 97 85 
60 38 88 77 
61 66 67 65 
62 39 83 67 
63 45 68 43 
64 23 70 22 
65 6 74 41 
66 13 76 42 
67 20 45 43 
68 39 70 23 
69 69 70 39 
70 71 72 51 
71 7 74 6 
72 14 76 13 
73 21 45 20 
74 8 33 7 
75 15 35 14 
76 22 34 21 
77 29 36 28 
78 8 75 33 
79 15 77 35 
80 46 78 68 
81 58 61 55 
82 48 78 46 
83 35 76 14 
84 34 45 21 
85 22 70 34 
86 52 71 51 
87 55 71 52 
88 54 73 58 
89 57 59 56 
90 33 74 7 
91 47 69 49 
92 50 51 48 
93 51 78 48 
94 50 53 52 
95 72 78 51 
96 54 55 52 
97 56 73 54 
98 6 41 5 
99 13 42 12 
100 20 43 19 
101 27 44 26 
102 46 68 45 
103 61 62 55 
104 57 63 59 
105 34 46 45 
106 47 48 46 
107 47 49 48 
108 47 70 69 
109 53 54 52 
110 53 56 54 
111 54 58 55 
112 59 60 56 
113 49 50 48 
114 53 57 56 
115 34 47 46 
116 34 70 47 
117 50 52 51 
118 62 71 55 
119 60 73 56 
120 49 79 50 
121 50 79 53 
122 57 64 63 
123 9 75 8 
124 10 37 9 
125 16 77 15 
126 17 38 16 
127 24 39 23 
128 31 40 30 
129 53 79 57 
130 57 79 64 
131 37 75 9 
132 38 77 16 
133 42 98 80 
134 84 98 42 
135 77 86 35 
136 11 80 10 
137 18 81 17 
138 32 82 31 
139 36 87 63 
140 25 83 24 
141 24 83 39 
142 65 89 36 
143 10 80 37 
144 17 81 38 
145 31 82 40 
146 67 83 44 
147 29 87 36 
148 62 86 71 
149 40 87 30 
150 78 88 68 
151 36 89 28 
152 27 89 44 
153 5 90 1 
154 12 92 2 
155 19 91 3 
156 26 93 4 
157 1 90 32 
158 2 92 11 
159 3 91 18 
160 4 93 25 
161 76 84 42 
162 61 84 62 
163 59 85 60 
164 82 85 40 
165 30 87 29 
166 71 86 72 
167 72 88 78 
168 11 92 80 
169 18 91 81 
170 32 90 82 
171 28 89 27 
172 41 90 5 
173 42 92 12 
174 43 91 19 
175 44 93 26 
176 25 93 83 
177 60 97 95 
178 95 96 73 
179 33 96 95 
180 73 96 58 
181 75 96 33 
182 33 95 74 
183 58 94 61 
184 60 95 73 
185 58 96 94 
186 37 94 75 
187 94 96 75 
188 95 97 74 
189 74 97 41 
190 82 90 41 
191 80 92 42 
192 81 91 43 
193 94 98 61 
194 37 98 94 
195 83 93 44 
196 80 98 37 
197 85 97 60 
198 61 98 84 
$EndElements
