$MeshFormat
4.1 0 8
$EndMeshFormat
$Entities
8 8 1 0
1 -0.015 -0.025 0 0 
2 0.015 -0.025 0 0 
3 0.025 -0.015 0 0 
4 0.025 0.015 0 0 
5 0.015 0.025 0 0 
6 -0.015 0.025 0 0 
7 -0.025 0.015 0 0 
8 -0.025 -0.015 0 0 
1 -0.0150001 -0.0250001 -1e-07 0.0150001 -0.0249999 1e-07 0 2 1 -2 
2 0.0149999 -0.0250001 -1e-07 0.0250001 -0.0149999 1e-07 0 2 2 -3 
3 0.0249999 -0.0150001 -1e-07 0.0250001 0.0150001 1e-07 0 2 3 -4 
4 0.0149999 0.0149999 -1e-07 0.0250001 0.0250001 1e-07 0 2 4 -5 
5 -0.0150001 0.0249999 -1e-07 0.0150001 0.0250001 1e-07 0 2 5 -6 
6 -0.0250001 0.0149999 -1e-07 -0.0149999 0.0250001 1e-07 0 2 6 -7 
7 -0.0250001 -0.0150001 -1e-07 -0.0249999 0.0150001 1e-07 0 2 7 -8 
8 -0.0250001 -0.0250001 -1e-07 -0.0149999 -0.0149999 1e-07 0 2 8 -1 
1 -0.0250001 -0.0250001 -1e-07 0.0250001 0.0250001 1e-07 0 8 1 2 3 4 5 6 7 8 
$EndEntities
$Nodes
17 99 1 99
0 1 0 1
1
-0.015 -0.025 0
0 2 0 1
2
0.015 -0.025 0
0 3 0 1
3
0.025 -0.015 0
0 4 0 1
4
0.025 0.015 0
0 5 0 1
5
0.015 0.025 0
0 6 0 1
6
-0.015 0.025 0
0 7 0 1
7
-0.025 0.015 0
0 8 0 1
8
-0.025 -0.015 0
1 1 0 0
1 2 0 0
1 3 0 0
1 4 0 0
1 5 0 0
1 6 0 0
1 7 0 0
1 8 0 0
2 1 0 91
9
10
11
12
13
14
15
16
17
18
19
20
21
22
23
24
25
26
27
28
29
30
31
32
33
34
35
36
37
38
39
40
41
42
43
44
45
46
47
48
49
50
51
52
53
54
55
56
57
58
59
60
61
62
63
64
65
66
67
68
69
70
71
72
73
74
75
76
77
78
79
80
81
82
83
84
85
86
87
88
89
90
91
92
93
94
95
96
97
98
99
-0.009000000000000001 -0.025 0
-0.003000000000000001 -0.025 0
0.003000000000000001 -0.025 0
0.009000000000000006 -0.025 0
0.02000000000000001 -0.02366025403784438 0
0.02366025403784439 -0.01999999999999999 0
0.025 -0.009000000000000001 0
0.025 -0.003000000000000001 0
0.025 0.003000000000000001 0
0.025 0.009000000000000006 0
0.02366025403784439 0.02 0
0.02000000000000001 0.02366025403784439 0
0.009000000000000001 0.025 0
0.003000000000000001 0.025 0
-0.003000000000000001 0.025 0
-0.009000000000000006 0.025 0
-0.01999999999999999 0.02366025403784439 0
-0.02366025403784438 0.02000000000000001 0
-0.025 0.009000000000000001 0
-0.025 0.003000000000000001 0
-0.025 -0.003000000000000001 0
-0.025 -0.009000000000000006 0
-0.02366025403784439 -0.02 0
-0.02 -0.02366025403784439 0
-9.175497160110865e-05 0.01997673570998447 0
3.886344760038108e-05 -0.02040166209355415 0
0.02040154073529819 6.040150529509351e-05 0
-0.01980384757729337 -5.2091739737318e-19 0
0.0200541525453681 0.01171228465349041 0
-0.01185978781360593 0.019833714135377 0
-0.01979943173849256 -0.0120364854112303 0
0.01185978781360593 -0.019833714135377 0
0.01971665461954846 -0.01193609937109132 0
-0.01193609937109132 -0.01971665461954845 0
0.01187122879223229 0.01938230542247788 0
-0.01971665461954845 0.01193609937109132 0
-0.01866025403784438 0.0186602540378444 0
0.0186602540378444 -0.01866025403784439 0
-0.01866025403784439 -0.01866025403784438 0
0.01866025403784439 0.01866025403784439 0
-0.01449733972801386 -0.01422346051921585 0
-0.008498755146970842 -0.0149595268245798 0
-0.01054830079390603 -0.009627219820968654 0
-0.004818437307474483 -0.01035873502659445 0
-0.006843970648634378 -0.00492763782678499 0
-0.0009854776756384482 -0.005778954097644517 0
-0.003091992655180121 -0.000255991823710139 0
0.002771850796029415 -0.001100639877043618 0
0.004858357875074533 -0.006336685362459736 0
0.0005852818759643409 0.00448409848261936 0
-0.005024235566587746 0.005214250590982166 0
0.006506692339040725 0.003594985816703698 0
0.0043565664881646 0.009150529902105606 0
0.01033819099224874 0.008489045343951259 0
-0.013630869029368 -0.003893918119285656 0
0.01214901379430015 0.002974796260613961 0
0.008240284179234275 0.01422677388004694 0
-0.01422346051921585 0.01449733972801387 0
-0.01517725542272072 0.008459002460689643 0
-0.008867775844349265 0.01523905871155903 0
0.01422346051921586 -0.01449733972801387 0
0.01513563636053297 -0.008608971668158896 0
0.009067021769427485 -0.01546853285529265 0
0.01435770552719607 0.01375746507588235 0
0.01577414031243265 0.007670472612053086 0
0.00573081268847401 0.0196941916343117 0
-0.01984251281189098 -0.006083572047621363 0
-0.01429141058256856 0.002564989507226867 0
-0.001353270781443634 0.009924437887179541 0
0.008478566811666626 -0.001765807584540018 0
0.001099371857992584 -0.01083643658252246 0
0.01476014013924811 -0.002464400598121964 0
0.002365118130978606 0.01457933479336091 0
-0.02023895773750976 0.006000000000000001 0
-0.006000000000000002 -0.02023895773750976 0
0.02000232864243795 -0.005824845022012848 0
-0.008836737662134324 0.0006888810031345744 0
0.00604311790349397 -0.02034694796537032 0
-0.005958037922318186 0.02006330883200989 0
-0.003456674908841935 0.01503174927887662 0
-0.002463739965022803 -0.01550172158871313 0
-0.006760046445592045 0.01042613629799428 0
0.0101609784067584 -0.007000467038444431 0
-0.01031493092651791 0.006330480705633485 0
-0.01566369082033429 -0.009172931183664364 0
0.02063820252977605 0.00582528608443085 0
0.003515540430647206 -0.01555721650038509 0
0.006887581650413817 -0.01097058329658514 0
-0.01106869383167916 0.01099040358077806 0
0.01675203070503377 0.002988685604588144 0
0.01109493574126971 -0.011309178917299 0
$EndNodes
$Elements
9 172 1 172
0 1 15 1
1 1 
0 2 15 1
2 2 
0 3 15 1
3 3 
0 4 15 1
4 4 
0 5 15 1
5 5 
0 6 15 1
6 6 
0 7 15 1
7 7 
0 8 15 1
8 8 
2 1 2 164
9 36 75 63 
10 42 47 1 
11 41 46 3 
12 44 45 7 
13 43 48 5 
14 2 46 40 
15 6 45 38 
16 4 48 37 
17 8 47 39 
18 1 47 32 
19 25 45 6 
20 3 46 14 
21 13 46 2 
22 19 48 4 
23 5 48 20 
24 7 45 26 
25 31 47 8 
26 63 76 36 
27 62 73 72 
28 65 72 43 
29 62 72 65 
30 76 82 36 
31 43 72 48 
32 43 74 65 
33 41 69 46 
34 42 49 47 
35 44 66 45 
36 67 82 76 
37 48 72 37 
38 46 69 40 
39 47 49 39 
40 45 66 38 
41 72 73 37 
42 75 93 63 
43 80 84 35 
44 42 50 49 
45 41 70 69 
46 44 67 66 
47 22 74 21 
48 95 96 79 
49 70 84 80 
50 33 74 22 
51 15 41 3 
52 8 39 30 
53 21 43 5 
54 6 38 24 
55 9 42 1 
56 4 37 18 
57 27 44 7 
58 2 40 12 
59 50 51 49 
60 89 95 79 
61 66 68 38 
62 69 71 40 
63 29 75 36 
64 50 52 51 
65 52 53 51 
66 52 54 53 
67 53 63 51 
68 54 55 53 
69 54 56 55 
70 56 58 55 
71 54 57 56 
72 58 59 55 
73 56 60 58 
74 60 61 58 
75 60 62 61 
76 60 64 62 
77 62 65 61 
78 64 73 62 
79 11 34 10 
80 17 35 16 
81 23 33 22 
82 29 36 28 
83 57 78 56 
84 58 77 59 
85 61 77 58 
86 56 78 60 
87 60 78 64 
88 52 79 54 
89 54 79 57 
90 21 74 43 
91 63 85 76 
92 30 75 29 
93 33 81 74 
94 74 81 65 
95 42 83 50 
96 44 82 67 
97 41 84 70 
98 61 81 77 
99 34 83 10 
100 36 82 28 
101 35 84 16 
102 59 85 55 
103 53 85 63 
104 78 80 64 
105 11 86 34 
106 23 87 33 
107 39 75 30 
108 71 86 40 
109 68 87 38 
110 32 47 31 
111 26 45 25 
112 14 46 13 
113 20 48 19 
114 65 81 61 
115 59 92 85 
116 52 89 79 
117 71 96 95 
118 34 95 89 
119 87 88 33 
120 9 83 42 
121 15 84 41 
122 27 82 44 
123 73 94 37 
124 63 93 51 
125 17 94 35 
126 10 83 9 
127 28 82 27 
128 16 84 15 
129 40 86 12 
130 38 87 24 
131 78 91 80 
132 80 91 70 
133 79 96 57 
134 88 90 77 
135 55 85 53 
136 35 98 80 
137 68 90 88 
138 76 92 67 
139 12 86 11 
140 24 87 23 
141 85 92 76 
142 37 94 18 
143 34 89 83 
144 80 98 64 
145 81 88 77 
146 68 88 87 
147 50 89 52 
148 77 90 59 
149 49 93 39 
150 57 91 78 
151 51 93 49 
152 33 88 81 
153 83 89 50 
154 39 93 75 
155 66 97 68 
156 18 94 17 
157 69 99 71 
158 86 95 34 
159 94 98 35 
160 90 92 59 
161 67 97 66 
162 70 99 69 
163 64 98 73 
164 71 95 86 
165 68 97 90 
166 90 97 92 
167 71 99 96 
168 57 96 91 
169 92 97 67 
170 73 98 94 
171 91 99 70 
172 96 99 91 
$EndElements
