$MeshFormat
4.1 0 8
$EndMeshFormat
$Entities
2 1 0 0
1 -0.15 1.224606353822377e-17 0 0 
2 0.15 -2.449212707644755e-17 0 0 
1 -0.1500001 -0.1000001 -1e-07 0.1500001 1.000000000098145e-07 1e-07 0 2 1 -2 
$EndEntities
$Nodes
3 14 1 14
0 1 0 1
1
-0.15 1.224606353822377e-17 0
0 2 0 1
2
0.15 -2.449212707644755e-17 0
1 1 1 12
3
4
5
6
7
8
9
10
11
12
13
14
-0.1433144611314457 -0.02952185804603712 0 3.441276941292049
-0.1258788430292125 -0.05438348146931248 0 3.71659268220002
-0.1020365238111893 -0.07329862150751269 0 3.964294205020481
-0.07468787029109533 -0.08672234629713516 0 4.191191318401637
-0.04544071625813405 -0.09530102320996175 0 4.404614853928518
-0.01524350555610617 -0.09948229443442791 0 4.610589876094925
0.01524350555610651 -0.09948229443442788 0 4.814188084674457
0.04544071625813451 -0.09530102320996164 0 5.020163106840865
0.07468787029109585 -0.08672234629713495 0 5.233586642367746
0.1020365238111896 -0.07329862150751251 0 5.460483755748902
0.1258788430292127 -0.05438348146931228 0 5.708185278569362
0.1433144611314459 -0.0295218580460369 0 5.983501019477333
$EndNodes
$Elements
3 15 1 15
0 1 15 1
1 1 
0 2 15 1
2 2 
1 1 1 13
3 1 3 
4 3 4 
5 4 5 
6 5 6 
7 6 7 
8 7 8 
9 8 9 
10 9 10 
11 10 11 
12 11 12 
13 12 13 
14 13 14 
15 14 2 
$EndElements
