$MeshFormat
4.1 0 8
$EndMeshFormat
$Entities
2 1 0 0
1 -0.15 1.224606353822377e-17 0 0 
2 0.15 -2.449212707644755e-17 0 0 
1 -0.1500001 -0.1000001 -1e-07 0.1500001 1.000000000098145e-07 1e-07 0 2 1 -2 
$EndEntities
$Nodes
3 53 1 53
0 1 0 1
1
-0.15 1.224606353822377e-17 0
0 2 0 1
2
0.15 -2.449212707644755e-17 0
1 1 0 51
3
4
5
6
7
8
9
10
11
12
13
14
15
16
17
18
19
20
21
22
23
24
25
26
27
28
29
30
31
32
33
34
35
36
37
38
39
40
41
42
43
44
45
46
47
48
49
50
51
52
53
-0.1495649077406894 -0.007611055482916409 0
-0.1482744026313969 -0.01512468951824444 0
-0.1461702374763717 -0.02245253438900325 0
-0.1433144611314457 -0.02952185804603712 0
-0.1397809589260701 -0.03627845103705686 0
-0.1356475638994308 -0.04268613310171945 0
-0.1309901243537857 -0.0487241091214595 0
-0.1258788430292125 -0.05438348146931248 0
-0.1203765255862511 -0.05966384383558209 0
-0.1145381522542693 -0.06457041523511046 0
-0.1084112286463699 -0.06911184334390971 0
-0.1020365238111893 -0.07329862150751269 0
-0.09544894440551806 -0.07714200185191614 0
-0.08867840673205681 -0.08065327762014911 0
-0.08175063619805692 -0.08384332871151989 0
-0.07468787029109533 -0.08672234629713516 0
-0.06750946024483434 -0.08929967718605615 0
-0.06023238048008096 -0.09158374514121005 0
-0.05287165499157473 -0.09358202129908855 0
-0.04544071625813405 -0.09530102320996175 0
-0.03795170761613502 -0.09674633013773563 0
-0.03041573985920534 -0.09792260610370292 0
-0.02284311229556355 -0.09883362500384679 0
-0.01524350555610617 -0.09948229443442791 0
-0.00762615346484446 -0.09987067589489174 0
1.056731199940153e-16 -0.1 0
0.007626153464844671 -0.09987067589489172 0
0.01524350555610651 -0.09948229443442788 0
0.02284311229556416 -0.09883362500384674 0
0.03041573985920632 -0.09792260610370278 0
0.03795170761613587 -0.09674633013773548 0
0.04544071625813451 -0.09530102320996164 0
0.05287165499158154 -0.09358202129908684 0
0.06023238048009361 -0.09158374514120637 0
0.06750946024484143 -0.08929967718605376 0
0.07468787029109585 -0.08672234629713495 0
0.08175063619809272 -0.08384332871150438 0
0.08867840673212361 -0.08065327762011648 0
0.09544894440555367 -0.07714200185189656 0
0.1020365238111896 -0.07329862150751251 0
0.1084112286463749 -0.06911184334390617 0
0.1145381522542695 -0.0645704152351103 0
0.1203765255862581 -0.05966384383557585 0
0.1258788430292127 -0.05438348146931228 0
0.1309901243537928 -0.04872410912145107 0
0.1356475638994309 -0.04268613310171932 0
0.1397809589260743 -0.03627845103704969 0
0.1433144611314459 -0.0295218580460369 0
0.1461702374763758 -0.02245253438899147 0
0.1482744026314013 -0.01512468951822517 0
0.1495649077406905 -0.007611055482906526 0
$EndNodes
$Elements
3 54 1 54
0 1 15 1
1 1 
0 2 15 1
2 2 
1 1 1 52
3 1 3 
4 3 4 
5 4 5 
6 5 6 
7 6 7 
8 7 8 
9 8 9 
10 9 10 
11 10 11 
12 11 12 
13 12 13 
14 13 14 
15 14 15 
16 15 16 
17 16 17 
18 17 18 
19 18 19 
20 19 20 
21 20 21 
22 21 22 
23 22 23 
24 23 24 
25 24 25 
26 25 26 
27 26 27 
28 27 28 
29 28 29 
30 29 30 
31 30 31 
32 31 32 
33 32 33 
34 33 34 
35 34 35 
36 35 36 
37 36 37 
38 37 38 
39 38 39 
40 39 40 
41 40 41 
42 41 42 
43 42 43 
44 43 44 
45 44 45 
46 45 46 
47 46 47 
48 47 48 
49 48 49 
50 49 50 
51 50 51 
52 51 52 
53 52 53 
54 53 2 
$EndElements
