$MeshFormat
4.1 0 8
$EndMeshFormat
$Entities
2 2 3 0
1 0.05 0 0 0 
2 -0.7 0.3 0.2 0 
1 -0.05195552846263055 -0.01695552846263055 -0.001955528462630553 0.05195552846263055 0.01695552846263055 0.001955528462630553 0 2 1 -1 
2 -1.7000001 0.04999989999999999 0.1999999 -0.6999999 0.5500001 0.2000001 0 2 2 -2 
1 -0.04804472481324554 -0.0163938377282247 -1e-07 0.05500524839575519 0.01639904539614832 1e-07 0 1 1 
2 -0.04804472481324554 -0.0163938377282247 -1e-07 0.05500524839575519 0.01639904539614832 1e-07 0 1 1 
3 -1.7000001 0.04999989999999999 0.1999999 -0.6999999 0.5500001 0.2000001 0 1 2 
$EndEntities
$Nodes
7 38 1 38
0 1 0 1
1
0.05 0 0
0 2 0 1
2
-0.7 0.3 0.2
1 1 0 13
3
4
5
6
7
8
9
10
11
12
13
14
15
0.0385993267748052 0.009534583238289054 0
0.02340729409310722 0.01325476791541409 0
0.00782906370459315 0.01481497615711372 0
-0.007829063903736153 0.01481497614764227 0
-0.02340728999874903 0.01325476856615391 0
-0.03859932835745136 0.00953458266164957 0
-0.05 2.81613111736273e-16 0
-0.03859932835745189 -0.009534582661649377 0
-0.02340728999874712 -0.01325476856615421 0
-0.007829063903736616 -0.01481497614764225 0
0.00782906370459272 -0.01481497615711374 0
0.02340729409310681 -0.01325476791541416 0
0.03859932677480606 -0.009534583238288744 0
1 2 0 0
2 1 0 12
16
17
18
19
20
21
22
23
24
25
26
27
-0.02112535822467249 -2.562516518976035e-06 0
0.007087992133620952 2.054167951686878e-06 0
-0.01447721106420455 -0.007408769332080613 0
-0.02986234329106217 -0.004768572589084179 0
-0.02986234329106191 0.004766010072565295 0
-0.01447721106420431 0.007406206815561644 0
0.02340729409310702 -3.382710778154774e-17 0
-0.0003705358850575933 0.007408515157796973 0
0.01524764311336408 0.006628411041682889 0
0.01524764311336387 -0.00662635687373124 0
-0.0003705358850578323 -0.007406460989845282 0
-0.007018683045525765 -2.541742836516259e-07 0
2 2 0 11
28
29
30
31
32
33
34
35
36
37
38
-0.02112535822467249 -2.562516518976035e-06 0
0.007087992133620952 2.054167951686878e-06 0
-0.01447721106420455 -0.007408769332080613 0
-0.02986234329106217 -0.004768572589084179 0
-0.02986234329106191 0.004766010072565295 0
-0.01447721106420431 0.007406206815561644 0
-0.0003705358850575933 0.007408515157796973 0
0.01524764311336408 0.006628411041682889 0
0.01524764311336387 -0.00662635687373124 0
-0.0003705358850578323 -0.007406460989845282 0
-0.007018683045525765 -2.541742836516259e-07 0
2 3 0 0
$EndNodes
$Elements
5 88 1 88
0 1 15 1
1 1 
0 2 15 1
2 2 
1 1 1 14
3 1 3 
4 3 4 
5 4 5 
6 5 6 
7 6 7 
8 7 8 
9 8 9 
10 9 10 
11 10 11 
12 11 12 
13 12 13 
14 13 14 
15 14 15 
16 15 1 
2 1 2 36
17 12 18 11 
18 18 19 11 
19 18 16 19 
20 11 19 10 
21 8 20 7 
22 20 21 7 
23 20 16 21 
24 7 21 6 
25 14 15 22 
26 15 3 22 
27 15 1 3 
28 22 3 4 
29 6 23 5 
30 23 24 5 
31 23 17 24 
32 5 24 4 
33 14 25 13 
34 25 26 13 
35 25 17 26 
36 13 26 12 
37 10 19 9 
38 19 20 9 
39 19 16 20 
40 9 20 8 
41 16 27 21 
42 27 23 21 
43 27 17 23 
44 21 23 6 
45 12 26 18 
46 26 27 18 
47 26 17 27 
48 18 27 16 
49 4 24 22 
50 24 25 22 
51 24 17 25 
52 22 25 14 
2 2 2 36
53 12 30 11 
54 30 31 11 
55 30 28 31 
56 11 31 10 
57 8 32 7 
58 32 33 7 
59 32 28 33 
60 7 33 6 
61 14 15 22 
62 15 3 22 
63 15 1 3 
64 22 3 4 
65 6 34 5 
66 34 35 5 
67 34 29 35 
68 5 35 4 
69 14 36 13 
70 36 37 13 
71 36 29 37 
72 13 37 12 
73 10 31 9 
74 31 32 9 
75 31 28 32 
76 9 32 8 
77 28 38 33 
78 38 34 33 
79 38 29 34 
80 33 34 6 
81 12 37 30 
82 37 38 30 
83 37 29 38 
84 30 38 28 
85 4 35 22 
86 35 36 22 
87 35 29 36 
88 22 36 14 
$EndElements
