$MeshFormat
4.1 0 8
$EndMeshFormat
$Entities
2 2 3 0
1 0.05 0 0 0 
2 -0.7 0.3 0.2 0 
1 -0.05195552846263055 -0.01695552846263055 -0.001955528462630553 0.05195552846263055 0.01695552846263055 0.001955528462630553 0 2 1 -1 
2 -1.7000001 0.04999989999999999 0.1999999 -0.6999999 0.5500001 0.2000001 0 2 2 -2 
1 -0.04804472481324554 -0.0163938377282247 -1e-07 0.05500524839575519 0.01639904539614832 1e-07 0 1 1 
2 -0.04804472481324554 -0.0163938377282247 -1e-07 0.05500524839575519 0.01639904539614832 1e-07 0 1 1 
3 -1.7000001 0.04999989999999999 0.1999999 -0.6999999 0.5500001 0.2000001 0 1 2 
$EndEntities
$Nodes
7 141 1 141
0 1 0 1
1
0.05 0 0
0 2 0 1
2
-0.7 0.3 0.2
1 1 0 27
3
4
5
6
7
8
9
10
11
12
13
14
15
16
17
18
19
20
21
22
23
24
25
26
27
28
29
0.04563281075240292 0.00613092101198378 0
0.0385993267748052 0.009534583238289054 0
0.03109093374146618 0.01174741867465097 0
0.02340729409310722 0.01325476791541409 0
0.01563960349635923 0.01424732438821058 0
0.00782906370459315 0.01481497615711372 0
-9.968404684194314e-11 0.015 0
-0.007829063903736153 0.01481497614764227 0
-0.01563960153272869 0.01424732458220744 0
-0.02340728999874903 0.01325476856615391 0
-0.03109093254429719 0.01174741895981141 0
-0.03859932835745136 0.00953458266164957 0
-0.04563281145212732 0.006130920543255622 0
-0.05 2.81613111736273e-16 0
-0.04563281145212776 -0.006130920543255327 0
-0.03859932835745189 -0.009534582661649377 0
-0.03109093254429639 -0.0117474189598116 0
-0.02340728999874712 -0.01325476856615421 0
-0.01563960153272796 -0.01424732458220751 0
-0.007829063903736616 -0.01481497614764225 0
-9.968449207498629e-11 -0.015 0
0.00782906370459272 -0.01481497615711374 0
0.0156396034963588 -0.01424732438821063 0
0.02340729409310681 -0.01325476791541416 0
0.03109093374146658 -0.01174741867465087 0
0.03859932677480606 -0.009534583238288744 0
0.04563281075240332 -0.006130921011983514 0
1 2 0 0
2 1 0 59
30
31
32
33
34
35
36
37
38
39
40
41
42
43
44
45
46
47
48
49
50
51
52
53
54
55
56
57
58
59
60
61
62
63
64
65
66
67
68
69
70
71
72
73
74
75
76
77
78
79
80
81
82
83
84
85
86
87
88
-0.02112535822467249 -2.562516518976035e-06 0
0.007087992133620952 2.054167951686878e-06 0
-0.01447721106420455 -0.007408769332080613 0
-0.02986234329106217 -0.004768572589084179 0
-0.02986234329106191 0.004766010072565295 0
-0.01447721106420431 0.007406206815561644 0
0.02340729409310702 -3.382710778154774e-17 0
-0.0003705358850575933 0.007408515157796973 0
0.01524764311336408 0.006628411041682889 0
0.01524764311336387 -0.00662635687373124 0
-0.0003705358850578323 -0.007406460989845282 0
-0.007018683045525765 -2.541742836516259e-07 0
-0.01115313748397058 -0.01111187273986143 0
-0.01894225053147582 -0.01033176894911742 0
-0.02216977717763335 -0.006088670960582397 0
-0.02663481664490466 -0.009011670577619146 0
-0.0178012846444385 -0.003705665924299795 0
-0.02549385075786731 -0.002385567552801581 0
-0.03423083582425701 -0.007151577625366781 0
-0.03423083582425659 0.007150296367107426 0
-0.02663481664490549 0.009010389319359546 0
-0.02216977717763311 0.006086108444063465 0
-0.01894225053147667 0.01033048769085778 0
-0.02549385075786718 0.002381723778023157 0
-0.01780128464443838 0.00370182214952133 0
-0.01115313748397022 0.01111059148160195 0
0.03100331043395652 -0.004767291619144391 0
0.02340729409310689 -0.006627383957707095 0
0.03859932677480558 1.530893467549532e-16 0
0.03100331043395609 0.004767291619144504 0
0.02340729409310712 0.006627383957707029 0
-0.004099799894396861 0.01111174565271961 0
0.003729263909767781 0.01111174565745534 0
0.007438553614153237 0.007018463099739928 0
0.01153835340897861 0.0107216935993983 0
0.003358728124281586 0.003705284662874349 0
0.01116781762349251 0.003315232604817284 0
0.01932746860323574 0.009941589478548523 0
0.01932746860323543 -0.009940562394572736 0
0.01153835340897829 -0.01072066651542249 0
0.00743855361415301 -0.007016408931788263 0
0.003729263909767437 -0.01111071857347951 0
0.0111678176234924 -0.003312151352889781 0
0.003358728124281461 -0.003702203410946819 0
-0.004099799894397222 -0.01111071856874377 0
-0.03993117164553109 -0.002384286294541911 0
-0.02986234329106204 -1.281258259444758e-06 0
-0.03993117164553096 0.002383005036282747 0
-0.01407202063509911 -1.408345401316324e-06 0
-0.01074794705486503 0.003702976320638991 0
-0.003694609465291688 0.003704130491756601 0
-0.00742387347463095 0.007407360986679307 0
3.465454404759899e-05 8.999968340139396e-07 0
-0.007423873474631179 -0.007407615160962952 0
-0.003694609465291807 -0.003703357582064415 0
-0.01074794705486515 -0.003704511753182134 0
0.01932746860323553 0.003314205520841426 0
0.01524764311336397 1.027083975824357e-06 0
0.01932746860323542 -0.003313178436865641 0
2 2 0 53
89
90
91
92
93
94
95
96
97
98
99
100
101
102
103
104
105
106
107
108
109
110
111
112
113
114
115
116
117
118
119
120
121
122
123
124
125
126
127
128
129
130
131
132
133
134
135
136
137
138
139
140
141
-0.02112535822467249 -2.562516518976035e-06 0
0.007087992133620952 2.054167951686878e-06 0
-0.01447721106420455 -0.007408769332080613 0
-0.02986234329106217 -0.004768572589084179 0
-0.02986234329106191 0.004766010072565295 0
-0.01447721106420431 0.007406206815561644 0
-0.0003705358850575933 0.007408515157796973 0
0.01524764311336408 0.006628411041682889 0
0.01524764311336387 -0.00662635687373124 0
-0.0003705358850578323 -0.007406460989845282 0
-0.007018683045525765 -2.541742836516259e-07 0
-0.01115313748397058 -0.01111187273986143 0
-0.01894225053147582 -0.01033176894911742 0
-0.02216977717763335 -0.006088670960582397 0
-0.02663481664490466 -0.009011670577619146 0
-0.0178012846444385 -0.003705665924299795 0
-0.02549385075786731 -0.002385567552801581 0
-0.03423083582425701 -0.007151577625366781 0
-0.03423083582425659 0.007150296367107426 0
-0.02663481664490549 0.009010389319359546 0
-0.02216977717763311 0.006086108444063465 0
-0.01894225053147667 0.01033048769085778 0
-0.02549385075786718 0.002381723778023157 0
-0.01780128464443838 0.00370182214952133 0
-0.01115313748397022 0.01111059148160195 0
-0.004099799894396861 0.01111174565271961 0
0.003729263909767781 0.01111174565745534 0
0.007438553614153237 0.007018463099739928 0
0.01153835340897861 0.0107216935993983 0
0.003358728124281586 0.003705284662874349 0
0.01116781762349251 0.003315232604817284 0
0.01932746860323574 0.009941589478548523 0
0.01932746860323543 -0.009940562394572736 0
0.01153835340897829 -0.01072066651542249 0
0.00743855361415301 -0.007016408931788263 0
0.003729263909767437 -0.01111071857347951 0
0.0111678176234924 -0.003312151352889781 0
0.003358728124281461 -0.003702203410946819 0
-0.004099799894397222 -0.01111071856874377 0
-0.03993117164553109 -0.002384286294541911 0
-0.02986234329106204 -1.281258259444758e-06 0
-0.03993117164553096 0.002383005036282747 0
-0.01407202063509911 -1.408345401316324e-06 0
-0.01074794705486503 0.003702976320638991 0
-0.003694609465291688 0.003704130491756601 0
-0.00742387347463095 0.007407360986679307 0
3.465454404759899e-05 8.999968340139396e-07 0
-0.007423873474631179 -0.007407615160962952 0
-0.003694609465291807 -0.003703357582064415 0
-0.01074794705486515 -0.003704511753182134 0
0.01932746860323553 0.003314205520841426 0
0.01524764311336397 1.027083975824357e-06 0
0.01932746860323542 -0.003313178436865641 0
2 3 0 0
$EndNodes
$Elements
5 318 1 318
0 1 15 1
1 1 
0 2 15 1
2 2 
1 1 1 28
3 1 3 
4 3 4 
5 4 5 
6 5 6 
7 6 7 
8 7 8 
9 8 9 
10 9 10 
11 10 11 
12 11 12 
13 12 13 
14 13 14 
15 14 15 
16 15 16 
17 16 17 
18 17 18 
19 18 19 
20 19 20 
21 20 21 
22 21 22 
23 22 23 
24 23 24 
25 24 25 
26 25 26 
27 26 27 
28 27 28 
29 28 29 
30 29 1 
2 1 2 144
31 22 42 21 
32 42 43 21 
33 42 32 43 
34 21 43 20 
35 32 44 43 
36 44 45 43 
37 44 33 45 
38 43 45 20 
39 32 46 44 
40 46 47 44 
41 46 30 47 
42 44 47 33 
43 20 45 19 
44 45 48 19 
45 45 33 48 
46 19 48 18 
47 14 49 13 
48 49 50 13 
49 49 34 50 
50 13 50 12 
51 34 51 50 
52 51 52 50 
53 51 35 52 
54 50 52 12 
55 34 53 51 
56 53 54 51 
57 53 30 54 
58 51 54 35 
59 12 52 11 
60 52 55 11 
61 52 35 55 
62 11 55 10 
63 26 27 57 
64 27 56 57 
65 27 28 56 
66 57 56 36 
67 28 58 56 
68 58 59 56 
69 58 4 59 
70 56 59 36 
71 28 29 58 
72 29 3 58 
73 29 1 3 
74 58 3 4 
75 36 59 60 
76 59 5 60 
77 59 4 5 
78 60 5 6 
79 10 61 9 
80 61 62 9 
81 61 37 62 
82 9 62 8 
83 37 63 62 
84 63 64 62 
85 63 38 64 
86 62 64 8 
87 37 65 63 
88 65 66 63 
89 65 31 66 
90 63 66 38 
91 8 64 7 
92 64 67 7 
93 64 38 67 
94 7 67 6 
95 26 68 25 
96 68 69 25 
97 68 39 69 
98 25 69 24 
99 39 70 69 
100 70 71 69 
101 70 40 71 
102 69 71 24 
103 39 72 70 
104 72 73 70 
105 72 31 73 
106 70 73 40 
107 24 71 23 
108 71 74 23 
109 71 40 74 
110 23 74 22 
111 18 48 17 
112 48 75 17 
113 48 33 75 
114 17 75 16 
115 33 76 75 
116 76 77 75 
117 76 34 77 
118 75 77 16 
119 33 47 76 
120 47 53 76 
121 47 30 53 
122 76 53 34 
123 16 77 15 
124 77 49 15 
125 77 34 49 
126 15 49 14 
127 30 78 54 
128 78 79 54 
129 78 41 79 
130 54 79 35 
131 41 80 79 
132 80 81 79 
133 80 37 81 
134 79 81 35 
135 41 82 80 
136 82 65 80 
137 82 31 65 
138 80 65 37 
139 35 81 55 
140 81 61 55 
141 81 37 61 
142 55 61 10 
143 22 74 42 
144 74 83 42 
145 74 40 83 
146 42 83 32 
147 40 84 83 
148 84 85 83 
149 84 41 85 
150 83 85 32 
151 40 73 84 
152 73 82 84 
153 73 31 82 
154 84 82 41 
155 32 85 46 
156 85 78 46 
157 85 41 78 
158 46 78 30 
159 6 67 60 
160 67 86 60 
161 67 38 86 
162 60 86 36 
163 38 87 86 
164 87 88 86 
165 87 39 88 
166 86 88 36 
167 38 66 87 
168 66 72 87 
169 66 31 72 
170 87 72 39 
171 36 88 57 
172 88 68 57 
173 88 39 68 
174 57 68 26 
2 2 2 144
175 22 100 21 
176 100 101 21 
177 100 91 101 
178 21 101 20 
179 91 102 101 
180 102 103 101 
181 102 92 103 
182 101 103 20 
183 91 104 102 
184 104 105 102 
185 104 89 105 
186 102 105 92 
187 20 103 19 
188 103 106 19 
189 103 92 106 
190 19 106 18 
191 14 107 13 
192 107 108 13 
193 107 93 108 
194 13 108 12 
195 93 109 108 
196 109 110 108 
197 109 94 110 
198 108 110 12 
199 93 111 109 
200 111 112 109 
201 111 89 112 
202 109 112 94 
203 12 110 11 
204 110 113 11 
205 110 94 113 
206 11 113 10 
207 26 27 57 
208 27 56 57 
209 27 28 56 
210 57 56 36 
211 28 58 56 
212 58 59 56 
213 58 4 59 
214 56 59 36 
215 28 29 58 
216 29 3 58 
217 29 1 3 
218 58 3 4 
219 36 59 60 
220 59 5 60 
221 59 4 5 
222 60 5 6 
223 10 114 9 
224 114 115 9 
225 114 95 115 
226 9 115 8 
227 95 116 115 
228 116 117 115 
229 116 96 117 
230 115 117 8 
231 95 118 116 
232 118 119 116 
233 118 90 119 
234 116 119 96 
235 8 117 7 
236 117 120 7 
237 117 96 120 
238 7 120 6 
239 26 121 25 
240 121 122 25 
241 121 97 122 
242 25 122 24 
243 97 123 122 
244 123 124 122 
245 123 98 124 
246 122 124 24 
247 97 125 123 
248 125 126 123 
249 125 90 126 
250 123 126 98 
251 24 124 23 
252 124 127 23 
253 124 98 127 
254 23 127 22 
255 18 106 17 
256 106 128 17 
257 106 92 128 
258 17 128 16 
259 92 129 128 
260 129 130 128 
261 129 93 130 
262 128 130 16 
263 92 105 129 
264 105 111 129 
265 105 89 111 
266 129 111 93 
267 16 130 15 
268 130 107 15 
269 130 93 107 
270 15 107 14 
271 89 131 112 
272 131 132 112 
273 131 99 132 
274 112 132 94 
275 99 133 132 
276 133 134 132 
277 133 95 134 
278 132 134 94 
279 99 135 133 
280 135 118 133 
281 135 90 118 
282 133 118 95 
283 94 134 113 
284 134 114 113 
285 134 95 114 
286 113 114 10 
287 22 127 100 
288 127 136 100 
289 127 98 136 
290 100 136 91 
291 98 137 136 
292 137 138 136 
293 137 99 138 
294 136 138 91 
295 98 126 137 
296 126 135 137 
297 126 90 135 
298 137 135 99 
299 91 138 104 
300 138 131 104 
301 138 99 131 
302 104 131 89 
303 6 120 60 
304 120 139 60 
305 120 96 139 
306 60 139 36 
307 96 140 139 
308 140 141 139 
309 140 97 141 
310 139 141 36 
311 96 119 140 
312 119 125 140 
313 119 90 125 
314 140 125 97 
315 36 141 57 
316 141 121 57 
317 141 97 121 
318 57 121 26 
$EndElements
