$MeshFormat
4.1 0 8
$EndMeshFormat
$Entities
8 8 1 0
1 0.53 0.2 0 0 
2 0.77 0.2 0 0 
3 0.8 0.23 0 0 
4 0.8 0.27 0 0 
5 0.77 0.3 0 0 
6 0.53 0.3 0 0 
7 0.5 0.27 0 0 
8 0.5 0.23 0 0 
1 0.5299999000000001 0.1999999 -1e-07 0.7700001 0.2000001 1e-07 0 2 1 -2 
2 0.7699999000000001 0.1999999 -1e-07 0.8000001 0.2300001 1e-07 0 2 2 -3 
3 0.7999999000000001 0.2299999 -1e-07 0.8000001 0.2700001 1e-07 0 2 3 -4 
4 0.7699999000000001 0.2699999 -1e-07 0.8000001 0.3000001 1e-07 0 2 4 -5 
5 0.5299999000000001 0.2999999 -1e-07 0.7700001 0.3000001 1e-07 0 2 5 -6 
6 0.4999999 0.2699999 -1e-07 0.5300001 0.3000001 1e-07 0 2 6 -7 
7 0.4999999 0.2299999 -1e-07 0.5000000999999999 0.2700001 1e-07 0 2 7 -8 
8 0.4999999 0.1999999 -1e-07 0.5300001 0.2300001 1e-07 0 2 8 -1 
1 0.4999999 0.1999999 -1e-07 0.8000001 0.3000001 1e-07 0 8 1 2 3 4 5 6 7 8 
$EndEntities
$Nodes
17 28 1 28
0 1 0 1
1
0.53 0.2 -0
0 2 0 1
2
0.77 0.2 -0
0 3 0 1
3
0.8 0.23 -0
0 4 0 1
4
0.8 0.27 -0
0 5 0 1
5
0.77 0.3 -0
0 6 0 1
6
0.53 0.3 -0
0 7 0 1
7
0.5 0.27 -0
0 8 0 1
8
0.5 0.23 -0
1 1 0 7
9
10
11
12
13
14
15
0.5600000000000001 0.2 0
0.5900000000000001 0.2 0
0.6200000000000001 0.2 0
0.65 0.2 0
0.68 0.2 0
0.71 0.2 0
0.74 0.2 0
1 2 0 1
16
0.7912132034355964 0.2087867965644036 -0
1 3 0 1
17
0.8 0.25 0
1 4 0 1
18
0.7912132034355964 0.2912132034355965 0
1 5 0 7
19
20
21
22
23
24
25
0.74 0.3 0
0.71 0.3 0
0.6799999999999999 0.3 0
0.65 0.3 0
0.62 0.3 0
0.5900000000000001 0.3 0
0.5600000000000001 0.3 0
1 6 0 1
26
0.5087867965644036 0.2912132034355964 0
1 7 0 1
27
0.5 0.25 0
1 8 0 1
28
0.5087867965644036 0.2087867965644036 0
2 1 0 0
$EndNodes
$Elements
16 36 1 36
0 1 15 1
1 1 
0 2 15 1
2 2 
0 3 15 1
3 3 
0 4 15 1
4 4 
0 5 15 1
5 5 
0 6 15 1
6 6 
0 7 15 1
7 7 
0 8 15 1
8 8 
1 1 1 8
9 1 9 
10 9 10 
11 10 11 
12 11 12 
13 12 13 
14 13 14 
15 14 15 
16 15 2 
1 2 1 2
17 2 16 
18 16 3 
1 3 1 2
19 3 17 
20 17 4 
1 4 1 2
21 4 18 
22 18 5 
1 5 1 8
23 5 19 
24 19 20 
25 20 21 
26 21 22 
27 22 23 
28 23 24 
29 24 25 
30 25 6 
1 6 1 2
31 6 26 
32 26 7 
1 7 1 2
33 7 27 
34 27 8 
1 8 1 2
35 8 28 
36 28 1 
$EndElements
