$MeshFormat
4.1 0 8
$EndMeshFormat
$Entities
4 4 1 0
1 -0.06 -0.025 0 0 
2 0.06 -0.025 0 0 
3 0.06 0.025 0 0 
4 -0.06 0.025 0 0 
1 -0.0600001 -0.0250001 -1e-07 0.0600001 -0.0249999 1e-07 0 2 1 -2 
2 0.05999989999999999 -0.0250001 -1e-07 0.0600001 0.0250001 1e-07 0 2 2 -3 
3 -0.0600001 0.0249999 -1e-07 0.0600001 0.0250001 1e-07 0 2 3 -4 
4 -0.0600001 -0.0250001 -1e-07 -0.05999989999999999 0.0250001 1e-07 0 2 4 -1 
1 -0.0600001 -0.0250001 -1e-07 0.0600001 0.0250001 1e-07 0 4 1 2 3 4 
$EndEntities
$Nodes
9 69 1 69
0 1 0 1
1
-0.06 -0.025 0
0 2 0 1
2
0.06 -0.025 0
0 3 0 1
3
0.06 0.025 0
0 4 0 1
4
-0.06 0.025 0
1 1 0 9
5
6
7
8
9
10
11
12
13
-0.04799999999999999 -0.025 0
-0.03599999999999998 -0.025 0
-0.02399999999999997 -0.025 0
-0.01199999999999995 -0.025 0
2.081668171172169e-17 -0.025 0
0.01200000000000004 -0.025 0
0.02400000000000004 -0.025 0
0.03600000000000006 -0.025 0
0.04800000000000006 -0.025 0
1 2 0 3
14
15
16
0.06 -0.01250000000000002 0
0.06 -3.122502256758253e-17 0
0.06 0.01249999999999998 0
1 3 0 9
17
18
19
20
21
22
23
24
25
0.04799999999999999 0.025 0
0.03599999999999998 0.025 0
0.02399999999999997 0.025 0
0.01199999999999995 0.025 0
-2.081668171172169e-17 0.025 0
-0.01200000000000004 0.025 0
-0.02400000000000004 0.025 0
-0.03600000000000006 0.025 0
-0.04800000000000006 0.025 0
1 4 0 3
26
27
28
-0.06 0.01250000000000002 0
-0.06 3.122502256758253e-17 0
-0.06 -0.01249999999999998 0
2 1 0 41
29
30
31
32
33
34
35
36
37
38
39
40
41
42
43
44
45
46
47
48
49
50
51
52
53
54
55
56
57
58
59
60
61
62
63
64
65
66
67
68
69
-0.005999999999999964 -0.01460769515458677 0
0.01873374971472022 0.01370657859795595 0
-0.02933846660188119 0.01498963164006858 0
0.02935406741755864 -0.01508383669489256 0
-0.00600000000000003 0.01460769515458675 0
-0.02910183411941426 -0.01445805789074981 0
0.04952655175465018 0.005724472295151333 0
-0.04802174667543292 -0.006477005136861736 0
0.05011983451539172 -0.006262068649023251 0
0.04004831926325002 -0.0005603830393318444 0
0.04022994273072821 0.01331644668869067 0
0.02889209277637454 0.005260624383637266 0
-0.04986372871897363 0.006136714050694591 0
-0.03926443344948528 0.00127048202596152 0
-0.01788974443364689 0.01467135123550038 0
-0.01198162407227451 0.004545201211203762 0
0.001288673945249114 0.003644136175221576 0
-0.02291860751851672 0.004888854930082883 0
-0.01800000000000002 -0.006198739871942294 0
0.006500390281503095 -0.01489659561831242 0
0.01800000000000004 -0.01460769515458674 0
0.01211262040402862 -0.003927781112277813 0
0.006337070609994862 0.01468513915065138 0
0.02348488092103566 -0.005291935010764416 0
0.04102151182044897 -0.01344935778226528 0
-0.04085775319764602 0.0135129695937826 0
-0.04133491616340799 -0.01584595455296408 0
-0.006338121687601389 -0.003713178146326246 0
0.01169381031728451 0.006202513125563719 0
-0.01782036682388283 -0.01705289858345578 0
0.02944131510822769 0.01638356712438868 0
-0.02909418903379768 -0.003368480485862536 0
0.05089541700658526 0.01576960032632185 0
-0.05116044061042 -0.01619117018324074 0
-0.05107127636480525 0.01593842531021304 0
0.05107479353111996 -0.01594180178987515 0
0.002242326841884483 -0.006332175581185071 0
-0.03229468996026538 0.006258691540806609 0
0.0325535680158224 -0.006297414302734146 0
-0.03661475076895555 -0.007994188104134221 0
0.01947984197072513 0.003050159745122317 0
$EndNodes
$Elements
9 140 1 140
0 1 15 1
1 1 
0 2 15 1
2 2 
0 3 15 1
3 3 
0 4 15 1
4 4 
1 1 1 10
5 1 5 
6 5 6 
7 6 7 
8 7 8 
9 8 9 
10 9 10 
11 10 11 
12 11 12 
13 12 13 
14 13 2 
1 2 1 4
15 2 14 
16 14 15 
17 15 16 
18 16 3 
1 3 1 10
19 3 17 
20 17 18 
21 18 19 
22 19 20 
23 20 21 
24 21 22 
25 22 23 
26 23 24 
27 24 25 
28 25 4 
1 4 1 4
29 4 26 
30 26 27 
31 27 28 
32 28 1 
2 1 2 108
33 18 39 17 
34 39 61 17 
35 42 54 41 
36 38 53 37 
37 42 66 54 
38 38 67 53 
39 50 57 45 
40 29 56 47 
41 47 58 29 
42 34 58 47 
43 45 65 50 
44 47 60 34 
45 36 42 41 
46 35 38 37 
47 35 39 38 
48 39 40 38 
49 35 37 15 
50 36 41 27 
51 16 35 15 
52 28 36 27 
53 27 41 26 
54 15 37 14 
55 22 33 21 
56 22 43 33 
57 45 51 33 
58 10 49 48 
59 12 32 11 
60 20 30 19 
61 24 31 23 
62 10 48 9 
63 43 44 33 
64 9 48 29 
65 33 51 21 
66 32 49 11 
67 20 51 30 
68 31 43 23 
69 44 45 33 
70 23 43 22 
71 7 34 6 
72 11 49 10 
73 9 29 8 
74 21 51 20 
75 49 50 48 
76 46 47 44 
77 43 46 44 
78 31 46 43 
79 49 52 50 
80 13 53 12 
81 25 54 24 
82 6 55 5 
83 36 68 42 
84 40 59 30 
85 3 61 16 
86 17 61 3 
87 32 52 49 
88 12 53 32 
89 24 54 31 
90 40 67 38 
91 34 55 6 
92 35 61 39 
93 30 69 40 
94 18 59 39 
95 55 68 36 
96 47 56 44 
97 45 57 51 
98 7 58 34 
99 29 58 8 
100 1 62 28 
101 5 62 1 
102 26 63 4 
103 14 64 2 
104 4 63 25 
105 2 64 13 
106 52 67 40 
107 48 65 29 
108 30 59 19 
109 19 59 18 
110 54 66 31 
111 53 67 32 
112 60 66 42 
113 44 56 45 
114 29 65 56 
115 51 57 30 
116 8 58 7 
117 39 59 40 
118 46 60 47 
119 52 69 50 
120 37 64 14 
121 16 61 35 
122 41 63 26 
123 28 62 36 
124 46 66 60 
125 57 69 30 
126 55 62 5 
127 13 64 53 
128 25 63 54 
129 50 65 48 
130 31 66 46 
131 53 64 37 
132 54 63 41 
133 36 62 55 
134 42 68 60 
135 56 65 45 
136 32 67 52 
137 40 69 52 
138 50 69 57 
139 34 68 55 
140 60 68 34 
$EndElements
