$MeshFormat
4.1 0 8
$EndMeshFormat
$Entities
8 8 1 0
1 -0.99 0.3 0 0 
2 -0.96 0.3 0 0 
3 -0.95 0.31 0 0 
4 -0.95 0.315 0 0 
5 -0.96 0.325 0 0 
6 -0.99 0.325 0 0 
7 -1 0.315 0 0 
8 -1 0.31 0 0 
1 -0.9900000999999999 0.2999999 -1e-07 -0.9599999 0.3000001 1e-07 0 2 1 -2 
2 -0.9600000999999999 0.2999999 -1e-07 -0.9499999 0.3100001 1e-07 0 2 2 -3 
3 -0.9500000999999999 0.3099999 -1e-07 -0.9499999 0.3150001 1e-07 0 2 3 -4 
4 -0.9600000999999999 0.3149999 -1e-07 -0.9499999 0.3250001 1e-07 0 2 4 -5 
5 -0.9900000999999999 0.3249999 -1e-07 -0.9599999 0.3250001 1e-07 0 2 5 -6 
6 -1.0000001 0.3149999 -1e-07 -0.9899999 0.3250001 1e-07 0 2 6 -7 
7 -1.0000001 0.3099999 -1e-07 -0.9999999000000001 0.3150001 1e-07 0 2 7 -8 
8 -1.0000001 0.2999999 -1e-07 -0.9899999 0.3100001 1e-07 0 2 8 -1 
1 -1.0000001 0.2999999 -1e-07 -0.9499999 0.3250001 1e-07 0 8 1 2 3 4 5 6 7 8 
$EndEntities
$Nodes
17 74 1 74
0 1 0 1
1
-0.99 0.3 -0
0 2 0 1
2
-0.96 0.3 -0
0 3 0 1
3
-0.95 0.31 -0
0 4 0 1
4
-0.95 0.315 -0
0 5 0 1
5
-0.96 0.325 -0
0 6 0 1
6
-0.99 0.325 -0
0 7 0 1
7
-1 0.315 -0
0 8 0 1
8
-1 0.31 -0
1 1 0 5
9
10
11
12
13
-0.985 0.3 0
-0.98 0.3 0
-0.975 0.3 0
-0.97 0.3 0
-0.965 0.3 0
1 2 0 2
14
15
-0.955 0.3013397459621556 -0
-0.9513397459621555 0.305 -0
1 3 0 0
1 4 0 2
16
17
-0.9513397459621555 0.32 0
-0.955 0.3236602540378444 0
1 5 0 5
18
19
20
21
22
-0.965 0.325 0
-0.97 0.325 0
-0.975 0.325 0
-0.98 0.325 0
-0.985 0.325 0
1 6 0 2
23
24
-0.995 0.3236602540378444 0
-0.9986602540378444 0.32 0
1 7 0 0
1 8 0 2
25
26
-0.9986602540378444 0.305 0
-0.995 0.3013397459621556 0
2 1 0 48
27
28
29
30
31
32
33
34
35
36
37
38
39
40
41
42
43
44
45
46
47
48
49
50
51
52
53
54
55
56
57
58
59
60
61
62
63
64
65
66
67
68
69
70
71
72
73
74
-0.9541783881222342 0.3123766049738789 0
-0.9823451987380362 0.3208409777074713 0
-0.9725 0.3206698729810778 0
-0.9675882693123358 0.3041157043554284 0
-0.9874114179808452 0.3043812698715265 0
-0.9775665319496279 0.304209984603767 0
-0.9950737727501165 0.3163595133109728 0
-0.9627751058491018 0.3207688747756753 0
-0.9587676676413789 0.3046454496063289 0
-0.9949519272315638 0.3088466375324609 0
-0.9563397459621555 0.3186602540378444 0
-0.9913595133109727 0.3200737727501166 0
-0.9825628569380401 0.3042802148528029 0
-0.9850622444361089 0.3086220469132311 0
-0.9898375192113943 0.3087091114258578 0
-0.9874167627129626 0.3126944738034719 0
-0.9824965011915119 0.3125260444464764 0
-0.9675458509748502 0.3206863732801774 0
-0.9700076418291417 0.3163424960120055 0
-0.9749347416885623 0.3163786165428247 0
-0.9725 0.3120096189432334 0
-0.9675 0.3120096189432334 0
-0.9774918146285803 0.312250861711592 0
-0.9773967914548051 0.3207432811046156 0
-0.9725258002103273 0.3041109058202252 0
-0.9651065812975915 0.3163295393320282 0
-0.9621815135433485 0.311965844046832 0
-0.9605088931558544 0.317116184793947 0
-0.9923181885481163 0.3125579272387006 0
-0.979944174616916 0.3165949847553171 0
-0.9800299915239782 0.3083431709181579 0
-0.97 0.3081698729810778 0
-0.9652610600789684 0.3079863685274994 0
-0.984857136046818 0.3166449924867807 0
-0.9750190230520857 0.3081824024963422 0
-0.963029615874015 0.3040243531514925 0
-0.987173876773058 0.3207308479452651 0
-0.992643519743608 0.3047127941320001 0
-0.9966593544871637 0.3125 0
-0.9537655124629074 0.3084504771622543 0
-0.9575720916794848 0.3090780872519381 0
-0.9899697948954964 0.3162378273594399 0
-0.9613623897634391 0.3075400205168182 0
-0.9588397459621556 0.3214433756729741 0
-0.9539337092734638 0.3159132159820102 0
-0.9576278724272277 0.3138638183214982 0
-0.9950233850247334 0.3200233850247334 0
-0.955126888054127 0.30522190907397 0
$EndNodes
$Elements
17 154 1 154
0 1 15 1
1 1 
0 2 15 1
2 2 
0 3 15 1
3 3 
0 4 15 1
4 4 
0 5 15 1
5 5 
0 6 15 1
6 6 
0 7 15 1
7 7 
0 8 15 1
8 8 
1 1 1 6
9 1 9 
10 9 10 
11 10 11 
12 11 12 
13 12 13 
14 13 2 
1 2 1 3
15 2 14 
16 14 15 
17 15 3 
1 3 1 1
18 3 4 
1 4 1 3
19 4 16 
20 16 17 
21 17 5 
1 5 1 6
22 5 18 
23 18 19 
24 19 20 
25 20 21 
26 21 22 
27 22 6 
1 6 1 3
28 6 23 
29 23 24 
30 24 7 
1 7 1 1
31 7 8 
1 8 1 3
32 8 25 
33 25 26 
34 26 1 
2 1 2 120
35 25 64 36 
36 26 64 25 
37 63 68 60 
38 35 74 67 
39 67 74 66 
40 14 35 2 
41 23 38 6 
42 25 36 8 
43 7 33 24 
44 32 61 57 
45 28 60 56 
46 17 37 16 
47 9 31 1 
48 18 34 5 
49 10 39 9 
50 11 32 10 
51 32 39 10 
52 12 51 11 
53 13 30 12 
54 30 51 12 
55 19 44 18 
56 20 29 19 
57 29 44 19 
58 21 50 20 
59 22 28 21 
60 28 50 21 
61 40 41 31 
62 40 42 41 
63 46 47 45 
64 47 48 45 
65 9 39 31 
66 18 44 34 
67 29 45 44 
68 39 40 31 
69 44 52 34 
70 11 51 32 
71 20 50 29 
72 29 46 45 
73 40 43 42 
74 48 52 45 
75 46 49 47 
76 4 27 3 
77 48 53 52 
78 29 50 46 
79 45 52 44 
80 41 55 36 
81 43 57 49 
82 49 56 43 
83 56 60 43 
84 57 61 49 
85 38 68 63 
86 35 62 2 
87 38 63 6 
88 52 54 34 
89 40 57 43 
90 46 56 49 
91 32 57 39 
92 28 56 50 
93 33 68 38 
94 54 70 34 
95 36 64 41 
96 2 62 13 
97 6 63 22 
98 1 64 26 
99 31 64 1 
100 53 54 52 
101 37 72 71 
102 37 70 54 
103 42 55 41 
104 39 57 40 
105 50 56 46 
106 43 60 42 
107 47 58 48 
108 49 61 47 
109 48 59 53 
110 30 58 51 
111 51 61 32 
112 47 61 58 
113 30 59 58 
114 58 59 48 
115 58 61 51 
116 54 72 37 
117 13 62 30 
118 22 63 28 
119 55 68 33 
120 41 64 31 
121 55 65 36 
122 60 68 42 
123 7 65 33 
124 36 65 8 
125 28 63 60 
126 30 62 59 
127 3 66 15 
128 38 73 33 
129 27 67 66 
130 5 70 17 
131 16 71 4 
132 8 65 7 
133 37 71 16 
134 17 70 37 
135 27 66 3 
136 67 72 53 
137 53 72 54 
138 33 65 55 
139 53 69 67 
140 67 69 35 
141 24 73 23 
142 15 74 14 
143 33 73 24 
144 23 73 38 
145 4 71 27 
146 34 70 5 
147 14 74 35 
148 59 69 53 
149 71 72 27 
150 42 68 55 
151 62 69 59 
152 35 69 62 
153 27 72 67 
154 66 74 15 
$EndElements
