$MeshFormat
4.1 0 8
$EndMeshFormat
$Entities
2 1 0 0
1 -0.14 1.224606353822377e-17 0 0 
2 0.14 -2.449212707644755e-17 0 0 
1 -0.1400001 -0.1000001 -1e-07 0.1400001 1.000000000098145e-07 1e-07 0 2 1 -2 
$EndEntities
$Nodes
3 14 1 14
0 1 0 1
1
-0.14 1.224606353822377e-17 0
0 2 0 1
2
0.14 -2.449212707644755e-17 0
1 1 0 12
3
4
5
6
7
8
9
10
11
12
13
14
-0.1342226705422006 -0.02843067752894816 0
-0.1187059453487685 -0.05301568182928593 0
-0.09682006429730161 -0.07223076380271543 0
-0.07118327743550937 -0.08610903450413515 0
-0.04342718666181149 -0.09506732163137531 0
-0.0145869841516064 -0.09945571236033877 0
0.0145869841516061 -0.09945571236033879 0
0.04342718666181121 -0.09506732163137538 0
0.07118327743550922 -0.08610903450413522 0
0.09682006429730172 -0.07223076380271536 0
0.1187059453487686 -0.0530156818292858 0
0.1342226705422005 -0.02843067752894841 0
$EndNodes
$Elements
3 15 1 15
0 1 15 1
1 1 
0 2 15 1
2 2 
1 1 1 13
3 1 3 
4 3 4 
5 4 5 
6 5 6 
7 6 7 
8 7 8 
9 8 9 
10 9 10 
11 10 11 
12 11 12 
13 12 13 
14 13 14 
15 14 2 
$EndElements
